<mxfile host="Electron" modified="2024-05-29T10:04:27.514Z" agent="Mozilla/5.0 (Windows NT 10.0; Win64; x64) AppleWebKit/537.36 (KHTML, like Gecko) draw.io/24.2.5 Chrome/120.0.6099.109 Electron/28.1.0 Safari/537.36" etag="w9ugeIRp6daCXKNjFm2o" version="24.2.5" type="device">
  <diagram name="Страница — 1" id="IaIiqB7NT-9Ca0OZgut1">
    <mxGraphModel dx="1313" dy="956" grid="1" gridSize="10" guides="1" tooltips="1" connect="1" arrows="1" fold="1" page="1" pageScale="1" pageWidth="827" pageHeight="1169" math="0" shadow="0">
      <root>
        <mxCell id="0" />
        <mxCell id="1" parent="0" />
        <mxCell id="vSMyjU54CDASJbtoZ8_--6" value="" style="edgeStyle=orthogonalEdgeStyle;rounded=0;orthogonalLoop=1;jettySize=auto;html=1;" parent="1" source="vSMyjU54CDASJbtoZ8_--1" target="vSMyjU54CDASJbtoZ8_--2" edge="1">
          <mxGeometry relative="1" as="geometry" />
        </mxCell>
        <mxCell id="vSMyjU54CDASJbtoZ8_--1" value="СТАРТ" style="ellipse;whiteSpace=wrap;html=1;" parent="1" vertex="1">
          <mxGeometry x="354" y="20" width="120" height="80" as="geometry" />
        </mxCell>
        <mxCell id="vSMyjU54CDASJbtoZ8_--5" value="" style="edgeStyle=orthogonalEdgeStyle;rounded=0;orthogonalLoop=1;jettySize=auto;html=1;" parent="1" source="vSMyjU54CDASJbtoZ8_--2" target="vSMyjU54CDASJbtoZ8_--4" edge="1">
          <mxGeometry relative="1" as="geometry" />
        </mxCell>
        <mxCell id="vSMyjU54CDASJbtoZ8_--2" value="Генерация двумерного массива со случайными числами" style="rounded=0;whiteSpace=wrap;html=1;" parent="1" vertex="1">
          <mxGeometry x="354" y="140" width="120" height="60" as="geometry" />
        </mxCell>
        <mxCell id="vSMyjU54CDASJbtoZ8_--9" value="" style="edgeStyle=orthogonalEdgeStyle;rounded=0;orthogonalLoop=1;jettySize=auto;html=1;" parent="1" source="vSMyjU54CDASJbtoZ8_--4" target="vSMyjU54CDASJbtoZ8_--8" edge="1">
          <mxGeometry relative="1" as="geometry" />
        </mxCell>
        <mxCell id="vSMyjU54CDASJbtoZ8_--4" value="Вывод сгенерированной матрицы" style="shape=parallelogram;perimeter=parallelogramPerimeter;whiteSpace=wrap;html=1;fixedSize=1;rounded=0;" parent="1" vertex="1">
          <mxGeometry x="354" y="250" width="120" height="60" as="geometry" />
        </mxCell>
        <mxCell id="vSMyjU54CDASJbtoZ8_--11" value="" style="edgeStyle=orthogonalEdgeStyle;rounded=0;orthogonalLoop=1;jettySize=auto;html=1;" parent="1" source="vSMyjU54CDASJbtoZ8_--8" target="vSMyjU54CDASJbtoZ8_--10" edge="1">
          <mxGeometry relative="1" as="geometry" />
        </mxCell>
        <mxCell id="vSMyjU54CDASJbtoZ8_--8" value="Декларирование флага is_exist" style="whiteSpace=wrap;html=1;rounded=0;" parent="1" vertex="1">
          <mxGeometry x="354" y="360" width="120" height="60" as="geometry" />
        </mxCell>
        <mxCell id="vSMyjU54CDASJbtoZ8_--13" value="" style="edgeStyle=orthogonalEdgeStyle;rounded=0;orthogonalLoop=1;jettySize=auto;html=1;" parent="1" source="vSMyjU54CDASJbtoZ8_--10" target="vSMyjU54CDASJbtoZ8_--12" edge="1">
          <mxGeometry relative="1" as="geometry" />
        </mxCell>
        <mxCell id="vSMyjU54CDASJbtoZ8_--10" value="Декларирование счетчика i" style="whiteSpace=wrap;html=1;rounded=0;" parent="1" vertex="1">
          <mxGeometry x="354" y="470" width="120" height="60" as="geometry" />
        </mxCell>
        <mxCell id="vSMyjU54CDASJbtoZ8_--16" value="" style="edgeStyle=orthogonalEdgeStyle;rounded=0;orthogonalLoop=1;jettySize=auto;html=1;" parent="1" source="vSMyjU54CDASJbtoZ8_--12" target="vSMyjU54CDASJbtoZ8_--15" edge="1">
          <mxGeometry relative="1" as="geometry" />
        </mxCell>
        <mxCell id="sg3gDsjX05587gEbMaaw-14" value="Да" style="edgeLabel;html=1;align=center;verticalAlign=middle;resizable=0;points=[];" vertex="1" connectable="0" parent="vSMyjU54CDASJbtoZ8_--16">
          <mxGeometry x="-0.6991" relative="1" as="geometry">
            <mxPoint x="16" as="offset" />
          </mxGeometry>
        </mxCell>
        <mxCell id="sg3gDsjX05587gEbMaaw-15" style="edgeStyle=orthogonalEdgeStyle;rounded=0;orthogonalLoop=1;jettySize=auto;html=1;entryX=0.5;entryY=0;entryDx=0;entryDy=0;" edge="1" parent="1" source="vSMyjU54CDASJbtoZ8_--12" target="sg3gDsjX05587gEbMaaw-11">
          <mxGeometry relative="1" as="geometry" />
        </mxCell>
        <mxCell id="sg3gDsjX05587gEbMaaw-16" value="Нет" style="edgeLabel;html=1;align=center;verticalAlign=middle;resizable=0;points=[];" vertex="1" connectable="0" parent="sg3gDsjX05587gEbMaaw-15">
          <mxGeometry x="-0.8966" y="-1" relative="1" as="geometry">
            <mxPoint x="-1" y="-12" as="offset" />
          </mxGeometry>
        </mxCell>
        <mxCell id="vSMyjU54CDASJbtoZ8_--12" value="i &amp;lt; 5" style="rhombus;whiteSpace=wrap;html=1;rounded=0;" parent="1" vertex="1">
          <mxGeometry x="358" y="585" width="112" height="80" as="geometry" />
        </mxCell>
        <mxCell id="sg3gDsjX05587gEbMaaw-2" value="" style="edgeStyle=orthogonalEdgeStyle;rounded=0;orthogonalLoop=1;jettySize=auto;html=1;" edge="1" parent="1" source="vSMyjU54CDASJbtoZ8_--15" target="sg3gDsjX05587gEbMaaw-1">
          <mxGeometry relative="1" as="geometry" />
        </mxCell>
        <mxCell id="vSMyjU54CDASJbtoZ8_--15" value="Получение суммы чисел всех элементов i столбца" style="whiteSpace=wrap;html=1;rounded=0;" parent="1" vertex="1">
          <mxGeometry x="354" y="730" width="120" height="60" as="geometry" />
        </mxCell>
        <mxCell id="sg3gDsjX05587gEbMaaw-4" value="" style="edgeStyle=orthogonalEdgeStyle;rounded=0;orthogonalLoop=1;jettySize=auto;html=1;" edge="1" parent="1" source="sg3gDsjX05587gEbMaaw-1" target="sg3gDsjX05587gEbMaaw-3">
          <mxGeometry relative="1" as="geometry" />
        </mxCell>
        <mxCell id="sg3gDsjX05587gEbMaaw-6" value="Нет" style="edgeLabel;html=1;align=center;verticalAlign=middle;resizable=0;points=[];" vertex="1" connectable="0" parent="sg3gDsjX05587gEbMaaw-4">
          <mxGeometry x="-0.562" y="-1" relative="1" as="geometry">
            <mxPoint x="3" y="-9" as="offset" />
          </mxGeometry>
        </mxCell>
        <mxCell id="sg3gDsjX05587gEbMaaw-9" value="" style="edgeStyle=orthogonalEdgeStyle;rounded=0;orthogonalLoop=1;jettySize=auto;html=1;" edge="1" parent="1" source="sg3gDsjX05587gEbMaaw-1" target="sg3gDsjX05587gEbMaaw-8">
          <mxGeometry relative="1" as="geometry" />
        </mxCell>
        <mxCell id="sg3gDsjX05587gEbMaaw-10" value="Да" style="edgeLabel;html=1;align=center;verticalAlign=middle;resizable=0;points=[];" vertex="1" connectable="0" parent="sg3gDsjX05587gEbMaaw-9">
          <mxGeometry x="-0.4354" relative="1" as="geometry">
            <mxPoint x="-19" y="-10" as="offset" />
          </mxGeometry>
        </mxCell>
        <mxCell id="sg3gDsjX05587gEbMaaw-1" value="Сумма чисел&amp;nbsp;&lt;div&gt;i столбца = 4&lt;/div&gt;" style="rhombus;whiteSpace=wrap;html=1;rounded=0;" vertex="1" parent="1">
          <mxGeometry x="346" y="860" width="136" height="80" as="geometry" />
        </mxCell>
        <mxCell id="sg3gDsjX05587gEbMaaw-13" style="edgeStyle=orthogonalEdgeStyle;rounded=0;orthogonalLoop=1;jettySize=auto;html=1;entryX=0;entryY=0.5;entryDx=0;entryDy=0;" edge="1" parent="1" source="sg3gDsjX05587gEbMaaw-3" target="vSMyjU54CDASJbtoZ8_--12">
          <mxGeometry relative="1" as="geometry">
            <Array as="points">
              <mxPoint x="200" y="625" />
            </Array>
          </mxGeometry>
        </mxCell>
        <mxCell id="sg3gDsjX05587gEbMaaw-3" value="Инкрементация i" style="whiteSpace=wrap;html=1;rounded=0;" vertex="1" parent="1">
          <mxGeometry x="140" y="870" width="120" height="60" as="geometry" />
        </mxCell>
        <mxCell id="sg3gDsjX05587gEbMaaw-12" style="edgeStyle=orthogonalEdgeStyle;rounded=0;orthogonalLoop=1;jettySize=auto;html=1;entryX=0.5;entryY=1;entryDx=0;entryDy=0;" edge="1" parent="1" source="sg3gDsjX05587gEbMaaw-8" target="sg3gDsjX05587gEbMaaw-11">
          <mxGeometry relative="1" as="geometry" />
        </mxCell>
        <mxCell id="sg3gDsjX05587gEbMaaw-8" value="Вывод факта существования" style="shape=parallelogram;perimeter=parallelogramPerimeter;whiteSpace=wrap;html=1;fixedSize=1;rounded=0;" vertex="1" parent="1">
          <mxGeometry x="570" y="870" width="120" height="60" as="geometry" />
        </mxCell>
        <mxCell id="sg3gDsjX05587gEbMaaw-11" value="КОНЕЦ" style="ellipse;whiteSpace=wrap;html=1;" vertex="1" parent="1">
          <mxGeometry x="570" y="720" width="120" height="80" as="geometry" />
        </mxCell>
      </root>
    </mxGraphModel>
  </diagram>
</mxfile>
